<svg width="58" height="59" viewBox="0 0 58 59" fill="none" xmlns="http://www.w3.org/2000/svg">
<path d="M29.0024 54.5626C15.1934 54.5626 3.96069 43.5068 3.96069 29.9175C3.96069 16.3282 15.1934 5.27246 29.0024 5.27246C42.8114 5.27246 54.0441 16.3282 54.0441 29.9175C54.0441 43.5068 42.8088 54.5626 29.0024 54.5626Z" fill="#232020"/>
<path d="M26.7175 47.3884L25.8588 47.2832L25.3374 51.5674L27.722 51.86L27.8063 51.1516L26.283 50.9642L26.7175 47.3884Z" fill="white"/>
<path d="M10.4779 28.2599V26.5966H10.7974V26.3193H9.85938V26.5966H10.1763V28.2599H10.4779Z" fill="white"/>
<path d="M8.93161 28.2827C9.23064 28.2827 9.38398 28.1056 9.38398 27.795C9.38398 27.2405 8.79104 27.1661 8.79104 26.7656C8.79104 26.627 8.84727 26.5731 8.94183 26.5731C9.0364 26.5731 9.09262 26.627 9.09262 26.7656V26.8452H9.37887V26.7836C9.37887 26.473 9.22808 26.2959 8.93161 26.2959C8.63514 26.2959 8.48434 26.473 8.48434 26.7836C8.48434 27.3381 9.07729 27.4125 9.07729 27.813C9.07729 27.9516 9.01595 28.0003 8.91883 28.0003C8.82171 28.0003 8.76037 27.9516 8.76037 27.813V27.6743H8.47412V27.7924C8.47412 28.103 8.62747 28.2801 8.9265 28.2801L8.93161 28.2827Z" fill="white"/>
<path d="M11.5514 34.6544L12.2517 34.5312L11.7815 31.8154L11.0812 31.9386L11.2422 32.8679L7.70752 33.4839L7.85576 34.3413L11.3904 33.7252L11.5514 34.6544Z" fill="white"/>
<path d="M7.95015 27.9827H7.42365V27.4154H7.84281V27.1382H7.42365V26.5966H7.95015V26.3193H7.12207V28.2599H7.95015V27.9827Z" fill="white"/>
<path d="M16.438 42.0928L12.5967 44.3388L13.2356 44.9806L14.0177 44.4749L14.8279 45.286L14.327 46.0715L14.9659 46.7132L17.1997 42.8526L16.4406 42.0928H16.438ZM15.2215 44.6751L14.626 44.077L16.2847 42.9989L16.2924 43.0066L15.2215 44.6751Z" fill="white"/>
<path d="M18.4878 44.0127L18.1019 44.6108L18.8916 45.1242L16.9441 48.1506L17.6725 48.6229L19.62 45.5965L20.4072 46.1073L20.7931 45.5066L18.4878 44.0127Z" fill="white"/>
<path d="M11.3725 38.9486C11.4339 38.8125 11.4364 38.638 11.3802 38.4275L11.3904 38.4224C11.5335 38.6277 11.7125 38.7484 11.9271 38.7843C12.1418 38.8202 12.3795 38.7843 12.6479 38.6688C12.9903 38.5225 13.2076 38.3223 13.297 38.063C13.3865 37.8063 13.3609 37.5111 13.2204 37.1774L12.5968 35.6963L8.64038 37.3802L8.97775 38.1811L10.6518 37.47L10.8333 37.8987C10.9048 38.0656 10.9099 38.2042 10.8511 38.312C10.7924 38.4198 10.6876 38.5122 10.5342 38.5841L9.78538 38.9281C9.7087 38.964 9.63714 39.0051 9.57069 39.0461C9.50424 39.0872 9.45057 39.1411 9.41223 39.2053L9.77771 40.0729L9.81094 40.0601C9.82116 39.9677 9.87483 39.8881 9.97706 39.8188C10.0818 39.7572 10.2378 39.6776 10.4448 39.58C10.5496 39.5313 10.6467 39.4851 10.731 39.444C10.8154 39.4029 10.8946 39.3644 10.9662 39.3259C11.1783 39.2104 11.3137 39.0821 11.3751 38.9486H11.3725ZM12.3463 36.7487L12.5047 37.1261C12.6606 37.4983 12.5559 37.7601 12.1904 37.9167C11.9757 38.0091 11.8019 38.0194 11.6664 37.9552C11.531 37.8884 11.4236 37.7601 11.3419 37.5676L11.2013 37.2339L12.3437 36.7487H12.3463Z" fill="white"/>
<path d="M14.4686 39.5355L10.8997 41.9424L11.3826 42.6648L14.9516 40.258L14.4686 39.5355Z" fill="white"/>
<path d="M23.0805 48.2351L22.1297 47.8912L22.6869 46.3382L21.8716 46.043L20.4148 50.1038L21.2301 50.399L21.8767 48.5971L22.8275 48.941L22.1808 50.743L22.9961 51.0408L24.453 46.9799L23.6377 46.6847L23.0805 48.2351Z" fill="white"/>
<path d="M29.2376 8.87202H29.2478L30.1807 11.9395L31.1672 11.9806L31.3487 7.66557L30.5564 7.6322L30.4311 10.5867H30.4184L29.4957 7.58599L28.4964 7.54492L28.3149 11.8599L29.1098 11.8933L29.2376 8.87202Z" fill="white"/>
<path d="M35.6908 13.1178C35.8033 13.2718 35.9822 13.4027 36.2224 13.5131C36.409 13.5978 36.5828 13.6388 36.7464 13.6337C36.9074 13.6311 37.0735 13.5721 37.2371 13.4617L37.2473 13.4669L37.0837 13.8314L37.6664 14.0957L38.6223 11.9729L37.3444 11.3902L37.0812 11.9755L37.6025 12.2116L37.4211 12.6146C37.3725 12.7224 37.3137 12.8072 37.2473 12.8713C37.1783 12.9355 37.1093 12.9817 37.0352 13.0099C36.9636 13.0382 36.892 13.0536 36.823 13.0536C36.754 13.0536 36.6978 13.0433 36.6492 13.0202C36.5368 12.9689 36.4601 12.8919 36.4218 12.7866C36.3834 12.6814 36.3732 12.5556 36.3962 12.4041C36.4192 12.2527 36.4652 12.0781 36.5368 11.8805C36.6083 11.6828 36.6978 11.4672 36.8026 11.2311C37.0249 10.7382 37.2243 10.4045 37.4057 10.23C37.5847 10.0554 37.7712 10.0118 37.9604 10.0965C38.0396 10.1324 38.1009 10.1863 38.1367 10.2531C38.175 10.3224 38.198 10.3968 38.2057 10.4764C38.2134 10.5585 38.2057 10.6407 38.1904 10.7254C38.1725 10.8101 38.1469 10.8897 38.1137 10.9615L38.8702 11.3055C39.0517 10.9051 39.0951 10.5534 39.0006 10.2531C38.906 9.95273 38.6453 9.70374 38.2134 9.50609C37.9604 9.39058 37.7329 9.33667 37.5259 9.34694C37.3189 9.35464 37.1272 9.41881 36.9508 9.53946C36.7719 9.6601 36.6058 9.83465 36.4524 10.0657C36.2965 10.2967 36.1457 10.5765 35.9975 10.9076C35.8442 11.249 35.7215 11.5571 35.6346 11.8292C35.5477 12.1012 35.5068 12.3451 35.5119 12.5607C35.5196 12.7763 35.5784 12.9612 35.6934 13.1152L35.6908 13.1178Z" fill="white"/>
<path d="M39.4427 15.2683L40.1609 14.6728L41.0605 15.3838L40.6541 16.2257L41.3646 16.7853L43.1281 12.6834L42.2847 12.0186L38.7322 14.7087L39.4427 15.2708V15.2683ZM42.2413 12.9375L42.2515 12.9452L41.3825 14.7292L40.7206 14.2056L42.2413 12.9375Z" fill="white"/>
<path d="M26.9091 11.9774L26.7762 11.274L25.2069 11.5795L24.9897 10.4372L26.4082 10.1625L26.2727 9.46178L24.8542 9.73644L24.6626 8.74047L26.1705 8.44784L26.035 7.74707L23.676 8.20398L24.4913 12.4445L26.9091 11.9774Z" fill="white"/>
<path d="M21.6596 13.4918C21.9229 13.3711 22.1222 13.2325 22.2577 13.0734C22.3932 12.9142 22.4749 12.7294 22.5031 12.5163C22.5312 12.3033 22.5082 12.062 22.4366 11.7873C22.365 11.5127 22.25 11.2021 22.0941 10.8581C21.9638 10.568 21.8283 10.3113 21.6903 10.0906C21.5523 9.86984 21.3989 9.69785 21.2303 9.57207C21.0616 9.44629 20.8725 9.37699 20.6654 9.36415C20.4559 9.35132 20.2156 9.40522 19.9396 9.531L18.6438 10.1163L20.4099 14.0539L21.6571 13.4892L21.6596 13.4918ZM20.0342 10.1933C20.1849 10.1265 20.3178 10.1009 20.4329 10.1163C20.5479 10.1317 20.6527 10.1856 20.7498 10.278C20.8469 10.3704 20.9389 10.4962 21.0309 10.6579C21.1204 10.8196 21.2175 11.0147 21.3172 11.238C21.4373 11.5075 21.5293 11.7334 21.5932 11.9208C21.6571 12.1082 21.6903 12.2699 21.6903 12.4008C21.6903 12.5343 21.6596 12.6421 21.5957 12.7294C21.5319 12.8141 21.4322 12.8885 21.2942 12.9527L20.9415 13.1119L19.6993 10.3421L20.0342 10.1907V10.1933Z" fill="white"/>
<path d="M11.9986 17.5227C12.1903 17.723 12.4127 17.9258 12.6631 18.1362C12.9161 18.3467 13.1589 18.529 13.3864 18.6804C13.6164 18.8319 13.8388 18.932 14.056 18.9782C14.2733 19.0244 14.4828 19.009 14.6873 18.9269C14.8918 18.8447 15.0962 18.6779 15.3033 18.4263C15.5103 18.1747 15.6355 17.9412 15.679 17.7255C15.7224 17.5099 15.6994 17.2994 15.6151 17.0941C15.5282 16.8887 15.3902 16.6859 15.201 16.4883C15.0093 16.2906 14.787 16.0853 14.534 15.8748C14.2835 15.6669 14.0433 15.4846 13.8132 15.3332C13.5832 15.1791 13.3583 15.079 13.1411 15.0328C12.9238 14.9866 12.7117 15.002 12.5047 15.079C12.2976 15.156 12.0881 15.3229 11.881 15.5744C11.674 15.826 11.5513 16.0622 11.513 16.2804C11.4747 16.5011 11.4977 16.7116 11.5846 16.9169C11.6715 17.1223 11.8095 17.3251 12.0012 17.5253L11.9986 17.5227ZM12.3692 15.98C12.451 15.8799 12.5404 15.8183 12.635 15.7952C12.7296 15.7721 12.8395 15.7849 12.9647 15.8363C13.0899 15.885 13.2356 15.9698 13.3992 16.0878C13.5628 16.2059 13.7544 16.3574 13.9768 16.5422C14.1992 16.727 14.3832 16.8913 14.5314 17.0325C14.6796 17.1736 14.787 17.2994 14.8586 17.4149C14.9276 17.5279 14.9608 17.6357 14.9557 17.7332C14.9506 17.8308 14.9071 17.9309 14.8253 18.0284C14.7435 18.1285 14.6541 18.1901 14.5595 18.2132C14.465 18.2364 14.3551 18.2235 14.2298 18.1747C14.1046 18.126 13.9615 18.0413 13.7953 17.9232C13.6292 17.8051 13.4375 17.6511 13.2152 17.4663C12.9928 17.2815 12.8088 17.1172 12.6631 16.9786C12.5174 16.8399 12.4101 16.7116 12.336 16.5961C12.2619 16.4806 12.2312 16.3753 12.2363 16.2778C12.2414 16.1802 12.2849 16.0801 12.3666 15.9826L12.3692 15.98Z" fill="white"/>
<path d="M19.206 14.783L18.7767 14.2157L17.555 15.1501L15.38 12.2803L14.6899 12.8065L17.2943 16.2462L19.206 14.783Z" fill="white"/>
<path d="M11.4465 27.9668H11.1526V28.2594H11.4465V27.9668Z" fill="white"/>
<path d="M9.5067 21.848C9.73161 22.0097 10.0076 22.1689 10.3322 22.328C10.667 22.4923 10.9712 22.6207 11.2395 22.7156C11.5079 22.8106 11.7507 22.8568 11.9654 22.8568C12.1801 22.8568 12.3641 22.8003 12.52 22.69C12.6759 22.5796 12.8113 22.405 12.9264 22.1663C13.0158 21.9815 13.0618 21.8069 13.0618 21.6427C13.0618 21.4784 13.0107 21.3141 12.9034 21.1447L12.9085 21.1344L13.2663 21.309L13.5449 20.7314L11.4593 19.7149L10.8485 20.983L11.4235 21.2628L11.674 20.7468L12.0702 20.9393C12.1749 20.9907 12.2593 21.0523 12.3206 21.1216C12.382 21.1909 12.428 21.2653 12.4535 21.3372C12.4816 21.4116 12.4919 21.4809 12.4919 21.5503C12.4919 21.6196 12.4765 21.676 12.4561 21.7248C12.4024 21.8377 12.3232 21.9122 12.2184 21.9481C12.1136 21.9841 11.9858 21.9892 11.835 21.9635C11.6842 21.9379 11.513 21.8865 11.3162 21.8095C11.122 21.7325 10.9073 21.6375 10.6773 21.5246C10.1942 21.2884 9.86706 21.0779 9.69582 20.8931C9.52714 20.7083 9.48625 20.5209 9.57826 20.331C9.6166 20.2514 9.67027 20.1923 9.73927 20.1564C9.80828 20.1205 9.8824 20.0999 9.96418 20.0948C10.046 20.0897 10.1278 20.0948 10.2121 20.1179C10.2964 20.1384 10.3731 20.1667 10.4472 20.2026L10.8102 19.4505C10.4166 19.258 10.069 19.2066 9.76483 19.2914C9.46325 19.3761 9.20767 19.6353 9.00065 20.0614C8.88052 20.313 8.82174 20.5414 8.8243 20.7494C8.82685 20.9573 8.88564 21.1524 9.00065 21.3321C9.11566 21.5143 9.2869 21.6863 9.51181 21.8454L9.5067 21.848Z" fill="white"/>
<path d="M49.6175 27.5845C49.753 27.5845 49.8475 27.5229 49.8987 27.4125V27.7667C49.8987 27.9516 49.8373 28.0055 49.73 28.0055C49.6329 28.0055 49.5715 27.9516 49.5715 27.813V27.7436H49.2853V27.795C49.2853 28.1056 49.4412 28.2827 49.7376 28.2827C50.052 28.2827 50.2028 28.1056 50.2028 27.777V26.7836C50.2028 26.473 50.0392 26.2959 49.7428 26.2959C49.4463 26.2959 49.2827 26.473 49.2827 26.7836V27.1379C49.2827 27.4228 49.3952 27.5819 49.6201 27.5819L49.6175 27.5845ZM49.5843 26.7656C49.5843 26.627 49.6456 26.5783 49.7428 26.5783C49.8399 26.5783 49.9012 26.627 49.9012 26.7656V27.1147C49.9012 27.2534 49.8399 27.3073 49.7428 27.3073C49.6456 27.3073 49.5843 27.2534 49.5843 27.1147V26.7656Z" fill="white"/>
<path d="M47.8053 27.7436V27.795C47.8053 28.1056 47.9612 28.2827 48.2577 28.2827C48.572 28.2827 48.7228 28.1056 48.7228 27.777V26.7836C48.7228 26.473 48.5593 26.2959 48.2628 26.2959C47.9663 26.2959 47.8027 26.473 47.8027 26.7836V27.1379C47.8027 27.4228 47.9152 27.5819 48.1401 27.5819C48.2756 27.5819 48.3701 27.5203 48.4212 27.4099V27.7642C48.4212 27.949 48.3599 28.0029 48.2526 28.0029C48.1554 28.0029 48.0941 27.949 48.0941 27.8104V27.7411H47.8078L47.8053 27.7436ZM48.2602 27.3047C48.1631 27.3047 48.1018 27.2508 48.1018 27.1122V26.7631C48.1018 26.6245 48.1631 26.5757 48.2602 26.5757C48.3573 26.5757 48.4187 26.6245 48.4187 26.7631V27.1122C48.4187 27.2508 48.3573 27.3047 48.2602 27.3047Z" fill="white"/>
<path d="M51.2149 28.2599H51.519V26.3193H51.3145C51.2685 26.4502 51.2149 26.5632 50.9797 26.5632V26.7788H51.2149V28.2599Z" fill="white"/>
<path d="M49.7299 32.1719C49.5868 32.1026 49.4309 32.0564 49.2648 32.0281C48.9785 31.9819 48.7408 32.0153 48.5492 32.1257C48.3575 32.236 48.2246 32.4106 48.1556 32.6442H48.1428C48.1172 32.4183 48.0329 32.2386 47.8847 32.1051C47.7364 31.9716 47.5498 31.8844 47.3198 31.8484C47.1179 31.8151 46.9416 31.8176 46.7933 31.8561C46.6451 31.8921 46.5199 31.9588 46.4202 32.0538C46.3205 32.1488 46.2387 32.2668 46.1799 32.4106C46.1212 32.5543 46.0751 32.7135 46.047 32.888L45.8145 34.3255L50.0571 35.0135L50.2897 33.5631C50.3305 33.3116 50.3305 33.096 50.2897 32.9163C50.2488 32.7366 50.1823 32.5851 50.0852 32.4594C49.9906 32.3361 49.8705 32.2386 49.7248 32.1719H49.7299ZM47.7364 33.5015L47.6981 33.7454L46.5863 33.5657L46.6374 33.2551C46.6706 33.0395 46.7397 32.8906 46.8368 32.8033C46.9339 32.7161 47.0872 32.6904 47.2891 32.7238C47.4911 32.7571 47.6265 32.8341 47.693 32.9573C47.7594 33.0806 47.7748 33.2602 47.7364 33.499V33.5015ZM49.6226 33.7172L49.5689 34.0509L48.291 33.8429L48.3498 33.4733C48.3651 33.3783 48.3881 33.291 48.4214 33.2166C48.4546 33.1396 48.5006 33.078 48.5594 33.0267C48.6182 32.9779 48.6897 32.9419 48.7766 32.9214C48.8635 32.9009 48.9683 32.9009 49.091 32.9214C49.3363 32.9625 49.4948 33.0523 49.5664 33.1935C49.6379 33.3347 49.6558 33.5092 49.6226 33.7172Z" fill="white"/>
<path d="M45.4796 22.8024L46.1109 22.4764L45.38 21.0517L46.4074 20.5204L47.0719 21.809L47.7032 21.483L47.0412 20.1918L47.9409 19.7272L48.6437 21.0979L49.275 20.7719L48.1735 18.626L44.3525 20.6051L45.4796 22.8024Z" fill="white"/>
<path d="M44.6362 15.0276L45.2368 15.754L42.4714 18.054L43.0235 18.7265L45.7889 16.4266L46.3895 17.153L46.9364 16.6987L45.1831 14.5732L44.6362 15.0276Z" fill="white"/>
<path d="M47.0744 28.2599V26.3193H46.87C46.824 26.4502 46.7703 26.5632 46.5352 26.5632V26.7788H46.7703V28.2599H47.0744Z" fill="white"/>
<path d="M35.4916 46.2799L36.5012 49.0573L36.4884 49.0625L34.4974 46.6444L33.5569 46.9884L35.0316 51.0441L35.7779 50.772L34.7453 47.9304L34.7581 47.9279L36.7849 50.4024L37.7101 50.061L36.2379 46.0078L35.4916 46.2799Z" fill="white"/>
<path d="M45.8426 42.5524L42.9188 40.4629L42.4153 41.1714L45.9193 43.6741L47.3096 41.7104L46.732 41.2971L45.8426 42.5524Z" fill="white"/>
<path d="M32.3657 48.5465C32.3069 48.2744 32.2149 48.046 32.0922 47.8612C31.9695 47.6763 31.806 47.5377 31.604 47.4479C31.4021 47.358 31.1389 47.3298 30.8143 47.3657C30.4923 47.3991 30.2393 47.4838 30.0603 47.6122C29.8814 47.7431 29.7511 47.9125 29.6693 48.1178C29.5875 48.3258 29.5466 48.5671 29.5466 48.8443C29.5466 49.1215 29.562 49.4244 29.5977 49.7478C29.6335 50.0764 29.6795 50.3742 29.7383 50.6437C29.7971 50.9132 29.8866 51.1417 30.0092 51.3265C30.1319 51.5113 30.2955 51.6474 30.4974 51.7295C30.6993 51.8142 30.9625 51.8373 31.2871 51.804C31.6092 51.7706 31.8622 51.691 32.0436 51.5652C32.2251 51.4394 32.3555 51.2752 32.4372 51.0672C32.519 50.8593 32.5599 50.618 32.5599 50.3434C32.5599 50.0687 32.5446 49.7658 32.5088 49.4372C32.4756 49.1138 32.427 48.8135 32.3682 48.544L32.3657 48.5465ZM31.6679 50.772C31.6398 50.903 31.5887 51.0005 31.5171 51.0672C31.4456 51.134 31.3459 51.1725 31.2181 51.1879C31.0903 51.2007 30.9855 51.1828 30.9012 51.134C30.8169 51.0852 30.7479 50.9979 30.6916 50.8773C30.6354 50.7566 30.592 50.5949 30.5562 50.3921C30.5204 50.1919 30.4872 49.9455 30.4565 49.658C30.4258 49.3705 30.4079 49.1241 30.4003 48.9213C30.3926 48.7185 30.4028 48.5517 30.4309 48.4207C30.459 48.2873 30.5102 48.1897 30.5817 48.123C30.6533 48.0562 30.753 48.0177 30.8808 48.0023C31.0085 47.9895 31.1133 48.0075 31.1977 48.0562C31.282 48.105 31.351 48.1923 31.4073 48.3155C31.4635 48.4387 31.5069 48.6004 31.5427 48.8006C31.5785 48.9983 31.6117 49.2422 31.6398 49.5322C31.6705 49.8197 31.6884 50.0661 31.6961 50.2715C31.7037 50.4743 31.6935 50.6437 31.6654 50.772H31.6679Z" fill="white"/>
<path d="M48.7893 37.1721C48.6538 37.0309 48.4596 36.9103 48.2091 36.8025L45.4437 35.6396L45.1089 36.4431L47.8743 37.6059C47.974 37.647 48.0634 37.6932 48.1401 37.742C48.2168 37.7907 48.2806 37.8446 48.3267 37.9062C48.3727 37.9679 48.4008 38.0346 48.411 38.109C48.4212 38.1835 48.4059 38.2682 48.3675 38.3657C48.3292 38.4581 48.2781 38.5274 48.2193 38.5762C48.158 38.6224 48.0915 38.6507 48.0148 38.6609C47.9382 38.6712 47.8564 38.6635 47.7669 38.643C47.6775 38.6199 47.5829 38.589 47.4832 38.548L44.7179 37.3852L44.3831 38.1886L47.1484 39.3514C47.4142 39.4644 47.6468 39.5183 47.8411 39.5183C48.0378 39.5183 48.2065 39.4772 48.3445 39.3951C48.4851 39.3129 48.6027 39.2025 48.6947 39.0639C48.7867 38.9228 48.8685 38.7713 48.9375 38.6096C49.0065 38.4453 49.0551 38.281 49.0857 38.1142C49.1164 37.9473 49.1087 37.7856 49.0602 37.6265C49.0142 37.4673 48.9222 37.3184 48.7867 37.1772L48.7893 37.1721Z" fill="white"/>
<path d="M43.7264 44.7135C43.6139 44.5338 43.481 44.3567 43.3251 44.1821L42.6785 44.7622C42.8344 44.9368 42.9468 45.0857 43.021 45.2114C43.0951 45.3372 43.1411 45.445 43.1564 45.5349C43.1718 45.6247 43.1641 45.7043 43.1334 45.7659C43.1027 45.8301 43.0567 45.8865 43.0005 45.9379C42.9315 45.9995 42.8574 46.0406 42.7807 46.0585C42.704 46.0765 42.6095 46.0585 42.5021 46.0072C42.3948 45.9559 42.2644 45.8609 42.1162 45.7248C41.9654 45.5888 41.784 45.3988 41.5667 45.155C41.3648 44.9265 41.1987 44.7289 41.0709 44.5594C40.9431 44.39 40.8511 44.2437 40.7923 44.1205C40.7361 43.9973 40.7131 43.8895 40.7284 43.7971C40.7412 43.7072 40.7898 43.6251 40.8715 43.5532C41.0172 43.4223 41.1655 43.3838 41.3162 43.4403C41.467 43.4967 41.6459 43.643 41.853 43.8766L42.4996 43.2965C42.3948 43.1784 42.2747 43.0604 42.1392 42.9423C42.0038 42.8242 41.853 42.7344 41.6843 42.6779C41.5156 42.6214 41.3316 42.6163 41.1322 42.6599C40.9329 42.7036 40.7156 42.8293 40.4856 43.0373C40.2428 43.2554 40.0869 43.4685 40.0153 43.6816C39.9463 43.892 39.9361 44.1077 39.9923 44.3233C40.046 44.5389 40.1534 44.7597 40.3144 44.9855C40.4754 45.2114 40.6645 45.4476 40.8792 45.6889C41.099 45.9353 41.3111 46.1509 41.513 46.3358C41.7175 46.5206 41.922 46.6515 42.129 46.7311C42.336 46.8106 42.5456 46.8235 42.7603 46.7747C42.9724 46.7234 43.2024 46.5899 43.4427 46.3717C43.6548 46.1817 43.7979 45.9918 43.872 45.807C43.9462 45.6221 43.9692 45.4373 43.9385 45.2551C43.9078 45.0728 43.8363 44.8906 43.7238 44.7109L43.7264 44.7135Z" fill="white"/>
<path d="M29.0024 44.8165C20.8494 44.8165 14.2375 38.1784 14.2375 29.9873C14.2375 21.7963 20.8468 15.1582 29.0024 15.1582C37.1579 15.1582 43.7672 21.7963 43.7672 29.9873C43.7672 38.1784 37.1579 44.8165 29.0024 44.8165Z" fill="white"/>
<path d="M57.9851 29.3144C57.9008 29.2605 57.8496 29.2246 57.7934 29.1937C55.8331 28.1875 55.5622 26.1237 57.2311 24.676C57.6119 24.3474 57.364 24.0573 57.3487 23.7442C57.3308 23.4105 57.1877 23.2436 56.8222 23.1409C54.9028 22.5967 54.2587 20.4996 55.4702 18.9158C55.598 18.7515 55.6133 18.4101 55.5392 18.2022C55.4293 17.8993 55.4191 17.5117 54.8824 17.4757C52.8173 17.3397 51.7336 15.4838 52.646 13.6484C52.8607 13.2146 52.6281 13.0195 52.4441 12.7474C52.2627 12.4779 52.1068 12.27 51.6799 12.3444C49.8065 12.673 48.2603 11.0302 48.7305 9.19739C48.8532 8.71994 48.6871 8.50689 48.3957 8.22196C48.0916 7.9242 47.8335 7.89596 47.4322 8.03971C45.6636 8.67631 43.8439 7.28246 44.0023 5.40091C44.0381 4.99277 43.8643 4.85415 43.5908 4.72067C43.2893 4.57436 43.0643 4.29713 42.6196 4.58719C40.9533 5.67813 38.9879 4.82592 38.6326 2.86992C38.5406 2.36167 38.2186 2.30776 37.8633 2.16145C37.5132 2.0177 37.2985 2.09471 37.0224 2.3591C35.627 3.69647 33.5312 3.23955 32.813 1.43244C32.6622 1.04997 32.445 0.94729 32.1051 0.937023C31.76 0.926755 31.4482 0.821511 31.1697 1.24249C30.0681 2.90329 27.9315 2.90585 26.8325 1.24762C26.5539 0.826644 26.2446 0.924188 25.8971 0.937023C25.5597 0.949857 25.3373 1.04483 25.184 1.42731C24.4658 3.23699 22.3726 3.69903 20.9771 2.36423C20.7062 2.10497 20.4941 2.01 20.1388 2.16145C19.7887 2.31033 19.459 2.3514 19.3644 2.86478C19.0092 4.82335 17.0438 5.6807 15.3825 4.59232C14.9429 4.30483 14.7154 4.57179 14.4138 4.72067C14.1429 4.85415 13.9615 4.98506 13.9973 5.39834C14.1583 7.30813 12.3181 8.69427 10.5137 8.01917C10.0715 7.85232 9.84408 8.0089 9.56806 8.26816C9.31503 8.50946 9.13613 8.68401 9.25369 9.12808C9.75719 11.0019 8.22115 12.6807 6.32475 12.347C5.90049 12.2726 5.73692 12.4702 5.55801 12.7423C5.3791 13.0144 5.13119 13.2044 5.34843 13.6433C6.26085 15.4838 5.17975 17.3422 3.11978 17.4757C2.58306 17.5117 2.56773 17.8916 2.45783 18.197C2.38371 18.4075 2.39393 18.7489 2.51917 18.9132C3.73061 20.4996 3.09422 22.6044 1.17737 23.1384C0.768444 23.2539 0.684103 23.4669 0.630431 23.8032C0.574204 24.1574 0.461748 24.4372 0.855341 24.7581C2.35304 25.9748 2.13324 28.1618 0.431078 29.0628C0.0400413 29.2708 -0.0110747 29.5095 0.00170425 29.8714C0.0119274 30.2359 -0.00340727 30.5208 0.431078 30.7519C2.14091 31.6606 2.35815 33.827 0.857897 35.054C0.433635 35.4006 0.599761 35.7086 0.64321 36.0731C0.684103 36.4094 0.817004 36.5711 1.17993 36.6712C3.09422 37.2077 3.73317 39.3074 2.52428 40.8989C2.39904 41.0632 2.38626 41.4046 2.46038 41.6151C2.56773 41.918 2.58306 42.303 3.11978 42.3364C5.1772 42.4673 6.26341 44.3283 5.35099 46.1663C5.13375 46.6026 5.37655 46.7952 5.55801 47.0673C5.73692 47.3393 5.89793 47.5421 6.32219 47.4677C8.19304 47.1391 9.73418 48.782 9.27158 50.6173C9.16424 51.0486 9.2588 51.2744 9.55783 51.5491C9.8722 51.8366 10.1252 51.9341 10.5699 51.775C12.3462 51.1384 14.1199 52.5271 14.0305 54.4138C14.0203 54.6243 14.1889 54.9221 14.3653 55.0401C14.6311 55.2172 14.8688 55.5381 15.3237 55.2557C17.1153 54.1391 18.9785 54.9452 19.3772 57.0064C19.4718 57.5018 19.8117 57.5095 20.1337 57.6481C20.4455 57.779 20.6577 57.7534 20.926 57.4992C22.3931 56.1003 24.4096 56.5572 25.2377 58.4259C25.3297 58.6313 25.6491 58.8058 25.8945 58.8571C26.1935 58.9188 26.5156 59.0266 26.7916 58.6236C27.9826 56.8883 30.017 56.8857 31.2003 58.6184C31.4738 59.0189 31.7933 58.9213 32.0949 58.8571C32.3402 58.8058 32.6623 58.6364 32.7543 58.431C33.6002 56.5315 35.558 56.1131 37.117 57.53C37.5285 57.9048 38.5252 57.6225 38.5764 57.0706C38.7553 55.1736 41.0529 54.0159 42.7449 55.2506C42.9084 55.3713 43.3608 55.1839 43.6266 55.0427C43.7979 54.9503 43.9819 54.6705 43.9768 54.4831C43.8975 52.4527 45.6431 51.1076 47.5421 51.8109C47.9817 51.9752 48.1708 51.7699 48.4239 51.544C48.682 51.3155 48.8635 51.1358 48.7433 50.6866C48.2373 48.8128 49.7733 47.1289 51.6646 47.4651C52.0863 47.5396 52.255 47.3522 52.4339 47.075C52.6077 46.8029 52.8658 46.6155 52.6486 46.174C51.7362 44.3309 52.8173 42.4648 54.8696 42.339C55.3654 42.3082 55.3782 41.9693 55.5264 41.6895C55.667 41.4251 55.7667 41.207 55.506 40.8861C54.2204 39.2972 54.8977 37.2642 56.8631 36.6327C57.0625 36.5685 57.2592 36.2939 57.3283 36.0757C57.4254 35.7625 57.5966 35.4442 57.1928 35.1028C55.6005 33.7577 55.8408 31.7478 57.6605 30.6697C57.819 30.5748 57.934 30.3283 57.9723 30.1332C58.026 29.8663 57.9851 29.5788 57.9851 29.3144ZM29.0023 54.5627C15.1934 54.5627 3.96064 43.5069 3.96064 29.9176C3.96064 16.3283 15.1934 5.27256 29.0023 5.27256C42.8113 5.27256 54.0441 16.3283 54.0441 29.9176C54.0441 43.5069 42.8088 54.5627 29.0023 54.5627Z" fill="white"/>
<path d="M43.067 32.8805C38.0193 27.8955 34.3594 22.3278 32.3659 16.9142C32.2534 16.6113 32.1461 16.3084 32.0464 16.0029H31.7346C31.7218 16.0928 31.7193 16.18 31.7065 16.2622C31.7039 16.2853 31.6988 16.3084 31.6937 16.3315C31.6707 16.4342 31.6272 16.5266 31.5276 16.6036C31.4279 16.6832 31.272 16.7473 31.0241 16.791C30.7762 16.8372 30.4388 16.8603 29.9736 16.8603H28.0798C27.6146 16.8654 27.2747 16.8397 27.0268 16.7961C26.7789 16.7525 26.623 16.6909 26.5233 16.6113C26.4236 16.5343 26.3802 16.4393 26.3572 16.3392C26.3521 16.3187 26.3495 16.293 26.3444 16.2673C26.3316 16.1852 26.3291 16.1005 26.3163 16.0106H26.007C25.9048 16.3161 25.8 16.619 25.6876 16.9219C23.6992 22.3766 20.0265 27.9905 14.9456 33.0165C15.127 33.8277 15.38 34.6157 15.6918 35.3704C20.2514 30.2468 23.556 24.656 25.4473 19.2373L25.3042 20.6183L24.8033 26.1808L24.6474 26.3451L23.8448 35.0161L23.7247 35.1907L23.004 42.9762C23.7528 43.3202 24.5375 43.6025 25.3502 43.8156C25.4039 43.2098 25.4754 42.6784 25.5623 42.2189C25.6978 41.5079 25.8716 40.9509 26.0709 40.5325C26.2703 40.1141 26.4978 39.8214 26.7482 39.6341C26.9961 39.4467 27.2671 39.362 27.5508 39.3645L30.5717 39.3594C30.858 39.3594 31.1289 39.4415 31.3768 39.6289C31.6272 39.8163 31.8573 40.1089 32.0566 40.5248C32.2585 40.9483 32.4323 41.5002 32.5703 42.2112C32.6572 42.663 32.7288 43.1841 32.785 43.7771C33.5952 43.5563 34.3798 43.2637 35.1261 42.9094L34.3824 35.1753L34.2623 35.0007L33.4316 26.3322L33.2757 26.168L32.7569 20.608L32.6087 19.227C34.5076 24.6073 37.8021 30.1544 42.3386 35.2395C42.6427 34.4822 42.8855 33.6942 43.0619 32.8805H43.067ZM31.0062 17.0939L31.0292 17.6689H30.8196L30.7992 17.0939H31.0062ZM30.541 17.0939L30.5589 17.6689H30.3059L30.2906 17.0939H30.541ZM30.0324 17.0939L30.0452 17.6689H29.8331L29.8229 17.0939H30.0324ZM29.5647 17.0939L29.5724 17.6714H29.3194L29.3168 17.0964H29.5673L29.5647 17.0939ZM28.8261 17.0939H29.0766V17.6689H28.8235V17.0939H28.8261ZM28.3405 17.0939H28.591L28.5884 17.6689H28.3354L28.343 17.0939H28.3405ZM27.8753 17.0939H28.0824L28.0747 17.6714H27.8651L27.8779 17.0939H27.8753ZM27.3897 17.0939H27.5968L27.5814 17.6714H27.3718L27.3897 17.0939ZM26.9016 17.0939H27.1086L27.0882 17.6689H26.876L26.9016 17.0939ZM26.4799 19.1551L26.4901 18.9241C26.5003 18.7136 26.5668 18.557 26.669 18.4415C26.7712 18.3234 26.9016 18.2464 27.0447 18.1951C27.1853 18.1437 27.3386 18.1181 27.4715 18.1052C27.607 18.0924 27.7271 18.0924 27.8063 18.0924L30.2446 18.0873C30.3263 18.0873 30.4439 18.0873 30.5819 18.1001C30.7148 18.1129 30.8682 18.1386 31.0113 18.1899C31.1544 18.2413 31.2873 18.3183 31.3896 18.4338C31.4918 18.5519 31.5582 18.7085 31.5685 18.919L31.5787 19.15L31.6528 20.6362C31.6579 20.7184 31.6221 20.7902 31.5531 20.8493C31.4841 20.9083 31.3819 20.9571 31.2515 20.9956C31.1212 21.0341 30.9627 21.0598 30.7813 21.0803C30.5998 21.0983 30.3979 21.106 30.1756 21.1085H27.8881C27.6683 21.1085 27.4639 21.1034 27.2824 21.0854C27.1009 21.0675 26.9425 21.0418 26.8121 21.0033C26.6818 20.9648 26.5795 20.9186 26.5105 20.8596C26.4441 20.7979 26.4058 20.7286 26.4109 20.6465L26.4824 19.1577L26.4799 19.1551ZM31.2132 22.161H30.9832L30.9551 21.3473H31.18L31.2132 22.161ZM30.702 22.161H30.426L30.403 21.3473H30.6739L30.6995 22.161H30.702ZM30.1653 22.161H29.8893L29.874 21.3473H30.1449L30.1628 22.161H30.1653ZM29.6286 22.161H29.3551L29.3475 21.3498H29.6184L29.6286 22.161ZM29.0919 22.1635H28.8184V21.3498H29.0893V22.1635H29.0919ZM28.5628 21.3473L28.5552 22.161H28.2817L28.2919 21.3473H28.5628ZM28.0364 21.3473L28.0236 22.1635H27.7475L27.7654 21.3498H28.0389L28.0364 21.3473ZM27.4843 21.3473L27.4639 22.161H27.2338L27.2594 21.3473H27.4843ZM26.9553 21.3473L26.9271 22.1635H26.6971L26.7303 21.3473H26.9553ZM26.1604 26.0062L26.2422 24.2787L26.2524 24.0528C26.2652 23.7858 26.3137 23.5728 26.3981 23.4034C26.4824 23.2365 26.6 23.1107 26.7508 23.0183C26.899 22.9285 27.083 22.8669 27.2926 22.831C27.5047 22.795 27.7475 22.7796 28.0185 22.7796L30.058 22.7745C30.3289 22.7745 30.5691 22.7873 30.7813 22.8258C30.9934 22.8592 31.1749 22.9208 31.3257 23.0106C31.4765 23.1056 31.594 23.2288 31.6784 23.3957C31.7627 23.5651 31.8138 23.7756 31.8266 24.0451L31.8368 24.271L31.9237 25.9985C31.9237 26.0447 31.9237 26.1089 31.8931 26.1808C31.8598 26.2552 31.801 26.3348 31.6809 26.4144C31.5634 26.4888 31.387 26.5633 31.1314 26.6146C30.8733 26.6659 30.5334 26.6993 30.0861 26.6993H28.0006C27.5533 26.7044 27.2134 26.6736 26.9553 26.6197C26.6997 26.5684 26.5233 26.4965 26.4058 26.4221C26.2882 26.3451 26.2243 26.2655 26.1936 26.1911C26.1604 26.1166 26.1604 26.0524 26.163 26.0088L26.1604 26.0062ZM31.4688 28.4089H31.2132L31.1672 27.1254H31.4177L31.4713 28.4089H31.4688ZM30.8988 28.4089H30.5922L30.5589 27.1229H30.858L30.8988 28.4089ZM30.3033 28.4089H29.9966L29.9736 27.1254H30.2752L30.3033 28.4089ZM29.7053 28.4089H29.3986L29.3884 27.1229H29.6874L29.7027 28.4089H29.7053ZM29.1098 28.4089H28.8031L28.8056 27.1229H29.1047L29.1098 28.4089ZM28.522 27.1254L28.5117 28.4115H28.205L28.2204 27.1254H28.5194H28.522ZM27.9392 27.1254L27.9188 28.4115H27.6121L27.6402 27.1254H27.9392ZM27.331 27.1254L27.2952 28.4115H27.0421L27.0805 27.128H27.331V27.1254ZM26.7457 27.128L26.6997 28.4115H26.4441L26.4978 27.1254H26.7457V27.128ZM26.3419 38.2402H26.0479L26.1221 36.3972H26.4109L26.3444 38.2402H26.3419ZM27.0345 38.2376H26.7406L26.7968 36.3946H27.083L27.0319 38.2376H27.0345ZM27.7245 38.2376H27.4306L27.469 36.3946H27.7578L27.7245 38.2376ZM28.4146 38.2376H28.1207L28.1411 36.3972H28.4274L28.4146 38.2376ZM28.8082 38.2376V36.392H29.0996L29.1047 38.2351H28.8082V38.2376ZM29.4983 38.2376L29.4855 36.3946H29.7717L29.7947 38.2376H29.4983ZM30.1602 38.2376L30.1296 36.3946H30.4746L30.5155 38.2376H30.1602ZM30.881 38.2376L30.8298 36.3946H31.1161L31.1749 38.2376H30.881ZM31.571 38.2376L31.5046 36.3946H31.7908L31.8675 38.2376H31.571ZM32.3505 35.1702C32.3275 35.2703 32.2815 35.373 32.1921 35.4602C32.1052 35.5501 31.9748 35.6271 31.7857 35.6836C31.5966 35.7375 31.3487 35.7708 31.019 35.7734L27.0958 35.7811C26.7687 35.7811 26.5182 35.7477 26.3291 35.6913C26.1374 35.6373 26.007 35.5578 25.9202 35.4705C25.8307 35.3832 25.7847 35.2831 25.7617 35.183C25.7387 35.0829 25.7387 34.9828 25.7438 34.8904L25.9432 30.5831C25.961 30.2186 26.0658 29.9439 26.2217 29.7386C26.3751 29.5332 26.5795 29.392 26.7968 29.297C27.0115 29.2021 27.2415 29.1507 27.446 29.1251C27.653 29.0968 27.8344 29.0917 27.9571 29.0917H30.1372C30.2573 29.0917 30.4388 29.0917 30.6458 29.1199C30.8528 29.1482 31.0829 29.1969 31.2975 29.2919C31.5148 29.3869 31.7193 29.5281 31.8726 29.7334C32.0285 29.9413 32.1333 30.2134 32.1512 30.5779L32.3659 34.8878C32.371 34.9776 32.371 35.0778 32.348 35.1779L32.3505 35.1702Z" fill="#ED1C24"/>
</svg>
